<svg width="51" height="35.721" fill="none" version="1.1" viewBox="0 0 51 35.721" xmlns="http://www.w3.org/2000/svg">
 <path d="m8.2765 12.946c1.002-2.0641 3.4769-3.6172 5.7514-3.6172h26.262v-1.6633c0-1.3627-1.1122-2.4849-2.4649-2.4849h-10.842v-1.4429c0-2.0641-1.6533-3.7374-3.6873-3.7374h-6.3025c-0.98195 0-1.9138 0.39078-2.6152 1.1022-0.7014 0.70139-1.0822 1.6332-1.0822 2.6352v1.4429h-10.832c-1.3627 0-2.4649 1.1222-2.4649 2.4849v22.214zm7.4849-9.2083c0-0.33066 0.13026-0.64127 0.36072-0.88175 0.23046-0.24048 0.54108-0.36072 0.87173-0.36072h6.3025c0.68135 0 1.2324 0.5511 1.2324 1.2425v1.4429h-8.7674zm25.501 29.759c-0.59118 1.2224-2.1944 2.2244-3.5471 2.2244h-35.37c-1.3527 0-1.9739-1.002-1.3727-2.2244l9.5089-19.459c0.6012-1.2224 2.1944-2.2244 3.5471-2.2244h35.37c1.3527 0 1.9739 1.002 1.3727 2.2244z" fill="#555"/>
</svg>
