<svg width="44" height="44" fill="none" version="1.1" viewBox="0 0 44 44" xmlns="http://www.w3.org/2000/svg">
 <path d="m44 22c0-1.6364-1.1815-3.3838-2.6358-3.899-1.4542-0.51515-2.8579-1.7677-3.272-2.7677-0.40395-0.9899-0.30296-2.8788 0.36355-4.2727 0.65642-1.3939 0.25247-3.4646-0.89878-4.6263-1.1613-1.1515-3.2215-1.5556-4.6151-0.88889-1.3936 0.65657-3.2821 0.76768-4.2717 0.35354-0.99977-0.40404-2.252-1.8182-2.767-3.2727-0.52513-1.4545-2.2722-2.6263-3.9082-2.6263-1.636 0-3.3831 1.1717-3.8981 2.6263-0.51503 1.4545-1.7774 2.8687-2.767 3.2727-0.98967 0.41414-2.8781 0.30303-4.2717-0.35354-1.3936-0.66667-3.4639-0.26263-4.6151 0.88889-1.1613 1.1616-1.5653 3.2323-0.89877 4.6263 0.6665 1.3939 0.76749 3.2828 0.35345 4.2727-0.40396 0.9899-1.8077 2.2525-3.2619 2.7677-1.4542 0.51515-2.6358 2.2626-2.6358 3.899s1.1816 3.3838 2.6358 3.899c1.4542 0.51515 2.8579 1.7778 3.272 2.7677 0.40395 0.9899 0.30295 2.8788-0.36355 4.2727-0.66651 1.3939-0.26258 3.4646 0.89877 4.6263 1.1513 1.1515 3.2215 1.5556 4.6151 0.88889 1.3936-0.65657 3.2821-0.76768 4.2717-0.35354 0.98967 0.41414 2.252 1.8182 2.767 3.2727s2.2621 2.6263 3.8981 2.6263c1.636 0 3.3831-1.1717 3.9082-2.6263 0.51503-1.4545 1.7673-2.8586 2.7569-3.2727 0.99977-0.41414 2.8882-0.30303 4.2818 0.35354 1.3936 0.66667 3.4538 0.26263 4.6151-0.88889 1.1512-1.1616 1.5552-3.2323 0.89878-4.6263-0.66651-1.3939-0.7776-3.2828-0.36355-4.2727 0.40395-0.9899 1.8178-2.2525 3.272-2.7677 1.4542-0.51515 2.6358-2.2626 2.6358-3.899zm-22.005 8.0707c-4.4636 0-8.0689-3.6061-8.0689-8.0606 0-4.4646 3.6052-8.0707 8.0689-8.0707 4.4535 0 8.0689 3.6061 8.0689 8.0707 0 4.4545-3.6153 8.0606-8.0689 8.0606z" fill="#555"/>
</svg>
