<svg width="17.99" height="23.99" fill="none" version="1.1" viewBox="0 0 17.99 23.99" xmlns="http://www.w3.org/2000/svg">
 <path d="m15 3h-1.5c0-1.66-2.02-3-4.5-3-2.49 0-4.5 1.34-4.5 3h-1.5c-1.65 0-3 1.34-3 3v15c0 1.65 1.35 2.99 3 2.99h12c1.65 0 2.99-1.34 2.99-2.99v-15c0-1.66-1.34-3-2.99-3zm-6-1.5c1.66 0 3 0.46 3 1.5h-6c0-1.04 1.34-1.5 3-1.5zm7.49 19.5c0 0.82-0.67 1.49-1.49 1.49h-12c-0.83 0-1.5-0.67-1.5-1.49v-1.5h14.99zm0-3h-14.99v-12c0-0.83 0.67-1.5 1.5-1.5h1.5v4.5h1.5v-4.5h6v4.5h1.5v-4.5h1.5c0.82 0 1.49 0.67 1.49 1.5z" fill="#2b0000"/>
</svg>
