<svg width="44" height="44" fill="none" version="1.1" viewBox="0 0 44 44" xmlns="http://www.w3.org/2000/svg">
 <path d="m30.25 0c-0.42 0-0.85 0.03-1.27 0.06-0.15 0.02-0.3 0.04-0.46 0.06-0.25 0.03-0.51 0.07-0.76 0.12-0.19 0.03-0.38 0.07-0.56 0.11-0.21 0.05-0.42 0.11-0.63 0.16-0.2 0.06-0.39 0.11-0.59 0.18-0.17 0.05-0.35 0.12-0.52 0.19-0.46 0.17-0.91 0.36-1.34 0.58-0.09 0.04-0.18 0.08-0.26 0.13-0.23 0.12-0.45 0.25-0.68 0.39-0.12 0.07-0.24 0.14-0.36 0.22-0.22 0.14-0.42 0.28-0.63 0.43-0.06 0.05-0.13 0.09-0.19 0.13-2.38-1.79-5.27-2.76-8.25-2.76-7.58 0-13.75 6.17-13.75 13.75 0 12.44 8 23.7 21.41 30.11 0.18 0.09 0.39 0.14 0.59 0.14s0.41-0.05 0.59-0.14c13.41-6.41 21.41-17.67 21.41-30.11 0-7.58-6.17-13.75-13.75-13.75zm-8.25 41.1c-12.07-5.99-19.25-16.17-19.25-27.35 0-6.07 4.93-11 11-11 2.22 0 4.37 0.68 6.19 1.93-2.13 2.43-3.44 5.6-3.44 9.07 0 0.76 0.61 1.37 1.38 1.37 0.76 0 1.37-0.61 1.37-1.37 0-3.27 1.45-6.21 3.72-8.23 0.21-0.19 0.43-0.36 0.66-0.53l0.15-0.12c0.22-0.16 0.44-0.31 0.67-0.45 0.06-0.04 0.13-0.08 0.19-0.12 0.22-0.13 0.45-0.25 0.68-0.37l0.24-0.12c0.22-0.1 0.45-0.2 0.67-0.29 0.1-0.04 0.2-0.07 0.31-0.11 0.21-0.08 0.43-0.15 0.64-0.21 0.14-0.04 0.26-0.08 0.4-0.11 0.2-0.05 0.39-0.1 0.59-0.14 0.18-0.03 0.37-0.05 0.55-0.08 0.15-0.02 0.31-0.05 0.47-0.07 0.35-0.03 0.7-0.05 1.06-0.05 6.07 0 11 4.93 11 11 0 11.18-7.18 21.36-19.25 27.35zm8.25-35.6c-0.76 0-1.38 0.62-1.38 1.37 0 0.76 0.62 1.38 1.38 1.38 3.03 0 5.5 2.47 5.5 5.5 0 0.76 0.61 1.37 1.37 1.37s1.38-0.61 1.38-1.37c0-4.55-3.7-8.25-8.25-8.25z" fill="#2b0000"/>
</svg>
