<svg width="47" height="47" fill="none" version="1.1" viewBox="0 0 47 47" xmlns="http://www.w3.org/2000/svg">
 <path d="m46.541 16.397c-0.62195-0.6123-1.6092-0.6123-2.2213 0l-13.674 13.667-19.213 8.4727-2.9619-2.9625 8.4611-19.227 13.674-13.667c0.61217-0.62212 0.61217-1.6096 0-2.2219-0.62195-0.61225-1.6092-0.61225-2.2214 0l-14.089 14.082-14.296 32.459 32.452-14.289 14.089-14.092c0.61217-0.6123 0.61217-1.6097 0-2.2219zm-19.914 10.862c0.30599 0.29627 0.70097 0.45424 1.1057 0.45424 0.40476 0 0.79974-0.15796 1.1156-0.45424l13.161-13.173c0.61217-0.6122 0.61217-1.5997 0-2.2219-0.62195-0.6122-1.6092-0.6122-2.2214 0l-13.161 13.173c-0.61217 0.6122-0.61217 1.5997 0 2.2219zm-3.4358-3.4365c0.30609 0.29627 0.70097 0.45424 1.1057 0.45424 0.40486 0 0.79974-0.15796 1.1058-0.45424l13.17-13.173c0.61217-0.6122 0.61217-1.6096 0-2.2218-0.62195-0.61225-1.6092-0.61225-2.2214 0l-13.161 13.163c-0.62205 0.6123-0.62205 1.6097 0 2.2318zm-3.4457-3.4464c0.30609 0.30615 0.71084 0.46412 1.1157 0.46412 0.40476 0 0.79964-0.15796 1.1057-0.46412l13.171-13.163c0.61207-0.61225 0.61207-1.6096 0-2.2219-0.61217-0.61225-1.6094-0.61225-2.2214 0l-13.171 13.163c-0.61207 0.6123-0.61207 1.6097 0 2.2219z" fill="#555"/>
</svg>
