<svg width="70" height="70" fill="none" version="1.1" viewBox="0 0 70 70" xmlns="http://www.w3.org/2000/svg">
 <path d="m29.934 51.821c-0.28999 0-0.58998-0.06-0.86997-0.18999-0.71997-0.33998-1.19-1.0699-1.19-1.8699v-29.518c0-0.79994 0.46998-1.5299 1.19-1.8699 0.71998-0.33998 1.5799-0.22998 2.1899 0.27998l17.719 14.769c0.46998 0.38997 0.73997 0.96993 0.73997 1.5799 0 0.60996-0.26999 1.1899-0.73997 1.5799l-17.719 14.759c-0.36999 0.31998-0.83997 0.47997-1.32 0.47997zm2.0599-27.188v20.729l12.44-10.359zm2.9499 45.367c-5.8698 0-11.77-1.4599-17.109-4.4697-0.98996-0.55996-1.34-1.8199-0.77997-2.8098 0.54998-0.98993 1.8099-1.3399 2.7999-0.77994 12.02 6.7595 27.229 4.6697 36.999-5.0896 12.04-12.049 12.04-31.648 0-43.697-12.05-12.049-31.649-12.049-43.698 0-12.05 12.049-12.05 31.648 0 43.697 0.79997 0.79994 0.79997 2.0998 0 2.9098-0.79997 0.79994-2.1099 0.79994-2.9099 0-13.66-13.659-13.66-35.867 0-49.516 13.65-13.659 35.859-13.659 49.518 0 13.65 13.649 13.65 35.857 0 49.516-6.7298 6.7195-15.729 10.239-24.819 10.239z" fill="#2b0000"/>
</svg>
