<svg width="22" height="22" fill="none" viewBox="0 0 22 22" xmlns="http://www.w3.org/2000/svg">
 <path d="m11 0c-6.0762 0-11 4.9238-11 11 0 6.0762 4.9238 11 11 11 6.0762 0 11-4.9238 11-11 0-6.0762-4.9238-11-11-11zm3.4467 11.524-4.7562 4.7562c-0.28286 0.28286-0.75429 0.28286-1.0371 0-0.28286-0.29333-0.28286-0.75428 0-1.0371l4.2429-4.2429-4.2429-4.2429c-0.28286-0.28286-0.28286-0.74381 0-1.0371 0.28286-0.28286 0.75429-0.28286 1.0371 0l4.7562 4.7562c0.14667 0.14667 0.22 0.33524 0.20952 0.52381 0 0.18857-0.06286 0.37714-0.20952 0.52381z" fill="#c7b299"/>
</svg>
